<svg width="155" height="121" viewBox="0 0 155 121" fill="none" xmlns="http://www.w3.org/2000/svg">
<path d="M35.7648 5.50735C33.7574 5.50735 31.8323 6.30478 30.4128 7.72419C28.9934 9.14361 28.196 11.0687 28.196 13.0761H43.3396C43.338 11.0682 42.5392 9.14306 41.1188 7.72382C39.6984 6.30458 37.7727 5.50735 35.7648 5.50735V5.50735Z" fill="#E0AD7B"/>
<path d="M45.9734 13.0761C45.9734 10.3686 44.8979 7.772 42.9834 5.85752C41.0689 3.94305 38.4723 2.86752 35.7648 2.86752C33.0574 2.86752 30.4608 3.94305 28.5463 5.85752C26.6318 7.772 25.5563 10.3686 25.5563 13.0761H26.787C26.787 10.695 27.7328 8.41145 29.4165 6.72777C31.1002 5.04409 33.3838 4.09821 35.7648 4.09821C38.1459 4.09821 40.4295 5.04409 42.1132 6.72777C43.7968 8.41145 44.7427 10.695 44.7427 13.0761H45.9734Z" fill="#E0AD7B"/>
<path d="M153.025 19.9495C153.025 18.6635 152.514 17.4301 151.605 16.5208C150.695 15.6114 149.462 15.1006 148.176 15.1006V24.7984C149.462 24.7984 150.695 24.2875 151.605 23.3782C152.514 22.4688 153.025 21.2355 153.025 19.9495V19.9495Z" fill="#E0AD7B"/>
<path d="M70.9071 31.8564H53.3144C53.8694 31.4123 54.3216 30.8532 54.6399 30.2177C54.9583 29.5822 55.1353 28.8853 55.1587 28.1748C55.182 27.4644 55.0513 26.7573 54.7754 26.1023C54.4996 25.4472 54.0851 24.8596 53.5605 24.3799H70.9071V14.6944H0.622467V24.3923H17.6983C17.1737 24.8719 16.7592 25.4595 16.4834 26.1146C16.2075 26.7697 16.0768 27.4767 16.1002 28.1872C16.1235 28.8976 16.3005 29.5945 16.6189 30.23C16.9372 30.8655 17.3894 31.4246 17.9444 31.8687H0.622467V41.5665H70.9071V31.8564ZM24.424 24.3799H46.8287C46.3041 24.8596 45.8897 25.4472 45.6138 26.1023C45.3379 26.7573 45.2072 27.4644 45.2306 28.1748C45.254 28.8853 45.4309 29.5822 45.7493 30.2177C46.0676 30.8532 46.5198 31.4123 47.0748 31.8564H24.184C24.7386 31.4118 25.1903 30.8524 25.5081 30.2166C25.8259 29.5809 26.0023 28.8838 26.0251 28.1734C26.0479 27.463 25.9166 26.7561 25.6402 26.1012C25.3638 25.4464 24.9489 24.8592 24.424 24.3799V24.3799Z" fill="#E0AD7B"/>
<path d="M75.8606 73.9398C78.5963 73.9398 80.8141 71.722 80.8141 68.9863C80.8141 66.2505 78.5963 64.0327 75.8606 64.0327C73.1248 64.0327 70.9071 66.2505 70.9071 68.9863C70.9071 71.722 73.1248 73.9398 75.8606 73.9398Z" fill="#E0AD7B"/>
<path d="M35.7648 66.0942C38.5006 66.0942 40.7183 63.8764 40.7183 61.1406C40.7183 58.4049 38.5006 56.1871 35.7648 56.1871C33.029 56.1871 30.8113 58.4049 30.8113 61.1406C30.8113 63.8764 33.029 66.0942 35.7648 66.0942Z" fill="#E0AD7B"/>
<path d="M35.7648 78.7395C38.5006 78.7395 40.7183 76.5217 40.7183 73.786C40.7183 71.0502 38.5006 68.8324 35.7648 68.8324C33.029 68.8324 30.8113 71.0502 30.8113 73.786C30.8113 76.5217 33.029 78.7395 35.7648 78.7395Z" fill="#E0AD7B"/>
<path d="M107.828 58.4885C112.12 58.4885 115.6 55.0089 115.6 50.7167C115.6 46.4244 112.12 42.9449 107.828 42.9449C103.535 42.9449 100.056 46.4244 100.056 50.7167C100.056 55.0089 103.535 58.4885 107.828 58.4885Z" fill="#E0AD7B"/>
<path d="M109.132 73.9398C111.868 73.9398 114.086 71.722 114.086 68.9863C114.086 66.2505 111.868 64.0327 109.132 64.0327C106.397 64.0327 104.179 66.2505 104.179 68.9863C104.179 71.722 106.397 73.9398 109.132 73.9398Z" fill="#E0AD7B"/>
<path d="M128.46 73.9398C131.196 73.9398 133.414 71.722 133.414 68.9863C133.414 66.2505 131.196 64.0327 128.46 64.0327C125.725 64.0327 123.507 66.2505 123.507 68.9863C123.507 71.722 125.725 73.9398 128.46 73.9398Z" fill="#E0AD7B"/>
<path d="M95.7117 71.1585V54.5442H87.0969V71.1585C87.1034 75.5204 88.839 79.7019 91.9234 82.7862C95.0078 85.8706 99.1892 87.6062 103.551 87.6128H134.441V78.9979H103.551C101.473 78.9947 99.4809 78.1677 98.0114 76.6982C96.5419 75.2287 95.7149 73.2366 95.7117 71.1585V71.1585Z" fill="#E0AD7B"/>
<path d="M145.456 55.8548C143.989 55.8522 142.552 55.4379 141.308 54.659C140.065 53.8801 139.065 52.7679 138.423 51.449L148.268 41.6035L146.324 39.659L137.617 48.3661C137.617 48.2492 137.617 48.1323 137.617 48.0153V45.8862L145.093 38.4098L143.148 36.4653L137.61 42.0034V39.6651L141.973 35.2962L140.029 33.3517L137.61 35.7761V24.7984H145.739V15.1006H137.623V6.01193H129.008V15.1006H79.405V42.3172C79.4017 44.3948 78.5745 46.3863 77.1049 47.8548C75.6352 49.3233 73.6431 50.1489 71.5655 50.1506H62.8399V58.7654H71.5655C75.9274 58.7621 80.1098 57.0284 83.1947 53.9446C86.2796 50.8609 88.0149 46.6791 88.0198 42.3172V24.7984H129.008V44.3848L119.845 53.5411L121.808 55.4856L129.032 48.2676C129.04 48.9927 129.098 49.7165 129.205 50.4336L122.959 56.6548L124.904 58.5993L129.968 53.5411C130.18 54.1356 130.426 54.7171 130.706 55.2826L126.147 59.8422L128.091 61.7868L132.177 57.7009C133.701 59.7953 135.698 61.5001 138.005 62.6764C140.313 63.8526 142.866 64.4671 145.456 64.4696H155V55.8548H145.456Z" fill="#E0AD7B"/>
<path d="M122.098 30.0227H93.558V39.7205H122.098V30.0227Z" fill="#E0AD7B"/>
<path d="M35.7648 1.23069C38.907 1.23395 41.9196 2.48363 44.1415 4.70552C46.3634 6.92741 47.613 9.94 47.6163 13.0822H48.847C48.847 9.61261 47.4687 6.2851 45.0153 3.83171C42.5619 1.37831 39.2344 0 35.7648 0C32.2952 0 28.9676 1.37831 26.5143 3.83171C24.0609 6.2851 22.6826 9.61261 22.6826 13.0822H23.9132C23.9165 9.94 25.1662 6.92741 27.3881 4.70552C29.61 2.48363 32.6226 1.23395 35.7648 1.23069V1.23069Z" fill="#E0AD7B"/>
<path d="M16.246 52.5073H55.2835C49.5857 48.445 42.7624 46.2616 35.7648 46.2616C28.7671 46.2616 21.9438 48.445 16.246 52.5073V52.5073Z" fill="#E0AD7B"/>
<path d="M35.7648 88.2281C42.7638 88.2367 49.5896 86.0525 55.2835 81.9824H16.246C21.9399 86.0525 28.7657 88.2367 35.7648 88.2281V88.2281Z" fill="#E0AD7B"/>
<path d="M42.2289 104.208C42.2289 103.692 42.3189 103.236 42.4989 102.84C42.6789 102.444 42.9189 102.114 43.2189 101.85C43.5069 101.598 43.8309 101.406 44.1909 101.274C44.5629 101.142 44.9349 101.076 45.3069 101.076C45.6789 101.076 46.0449 101.142 46.4049 101.274C46.7769 101.406 47.1129 101.598 47.4129 101.85C47.7009 102.114 47.9349 102.444 48.1149 102.84C48.2949 103.236 48.3849 103.692 48.3849 104.208V110.976C48.3849 111.516 48.2949 111.978 48.1149 112.362C47.9349 112.746 47.7009 113.064 47.4129 113.316C47.1129 113.58 46.7769 113.778 46.4049 113.91C46.0449 114.042 45.6789 114.108 45.3069 114.108C44.9349 114.108 44.5629 114.042 44.1909 113.91C43.8309 113.778 43.5069 113.58 43.2189 113.316C42.9189 113.064 42.6789 112.746 42.4989 112.362C42.3189 111.978 42.2289 111.516 42.2289 110.976V104.208ZM44.0649 110.976C44.0649 111.42 44.1849 111.75 44.4249 111.966C44.6769 112.17 44.9709 112.272 45.3069 112.272C45.6429 112.272 45.9309 112.17 46.1709 111.966C46.4229 111.75 46.5489 111.42 46.5489 110.976V104.208C46.5489 103.764 46.4229 103.44 46.1709 103.236C45.9309 103.02 45.6429 102.912 45.3069 102.912C44.9709 102.912 44.6769 103.02 44.4249 103.236C44.1849 103.44 44.0649 103.764 44.0649 104.208V110.976ZM58.0289 114V101.184H59.7929L62.5649 108.906H62.6009V101.184H64.4369V114H62.7089L59.9009 106.296H59.8649V114H58.0289ZM74.199 114V101.184H76.035V107.034H76.071L78.753 101.184H80.589L78.087 106.314L81.057 114H79.113L77.025 108.312L76.035 110.166V114H74.199ZM93.671 109.518L92.771 104.874H92.735L91.835 109.518H93.671ZM89.135 114L91.997 101.184H93.527L96.389 114H94.553L94.013 111.246H91.511L90.971 114H89.135ZM105.321 114V101.184H107.085L109.857 108.906H109.893V101.184H111.729V114H110.001L107.193 106.296H107.157V114H105.321Z" fill="#E0AD7B"/>
<rect x="2" y="107" width="30" height="1" fill="#826454"/>
<rect x="122" y="107" width="30" height="1" fill="#826454"/>
</svg>
